<mxfile host="app.diagrams.net" modified="2020-10-21T07:12:43.027Z" agent="5.0 (X11)" etag="41zzrCujBycz7JZaT6u5" version="13.8.1" type="github">
  <diagram name="Page-1" id="8ce9d11a-91a2-4d17-14d8-a56ed91bf033">
    <mxGraphModel dx="1422" dy="768" grid="1" gridSize="10" guides="1" tooltips="1" connect="1" arrows="1" fold="1" page="1" pageScale="1" pageWidth="1100" pageHeight="850" background="#ffffff" math="0" shadow="0">
      <root>
        <mxCell id="0" />
        <mxCell id="1" parent="0" />
        <mxCell id="17ea667e15c223fc-28" style="edgeStyle=orthogonalEdgeStyle;rounded=1;html=1;labelBackgroundColor=none;startArrow=none;startFill=0;startSize=5;endArrow=classicThin;endFill=1;endSize=5;jettySize=auto;orthogonalLoop=1;strokeWidth=1;fontFamily=Verdana;fontSize=8" parent="1" source="17ea667e15c223fc-1" target="17ea667e15c223fc-2" edge="1">
          <mxGeometry relative="1" as="geometry" />
        </mxCell>
        <mxCell id="17ea667e15c223fc-1" value="Visitor enter to the app" style="shape=hexagon;perimeter=hexagonPerimeter;whiteSpace=wrap;html=1;rounded=0;shadow=0;labelBackgroundColor=none;strokeWidth=1;fontFamily=Verdana;fontSize=12;align=center;" parent="1" vertex="1">
          <mxGeometry x="10" y="40" width="120" height="80" as="geometry" />
        </mxCell>
        <mxCell id="17ea667e15c223fc-29" style="edgeStyle=orthogonalEdgeStyle;rounded=1;html=1;labelBackgroundColor=none;startArrow=none;startFill=0;startSize=5;endArrow=classicThin;endFill=1;endSize=5;jettySize=auto;orthogonalLoop=1;strokeWidth=1;fontFamily=Verdana;fontSize=8" parent="1" source="17ea667e15c223fc-2" target="17ea667e15c223fc-3" edge="1">
          <mxGeometry relative="1" as="geometry" />
        </mxCell>
        <mxCell id="17ea667e15c223fc-2" value="Logged in user?" style="rounded=1;whiteSpace=wrap;html=1;shadow=0;labelBackgroundColor=none;strokeWidth=1;fontFamily=Verdana;fontSize=12;align=center;" parent="1" vertex="1">
          <mxGeometry x="150" y="40" width="120" height="80" as="geometry" />
        </mxCell>
        <mxCell id="17ea667e15c223fc-30" style="edgeStyle=orthogonalEdgeStyle;rounded=1;html=1;labelBackgroundColor=none;startArrow=none;startFill=0;startSize=5;endArrow=classicThin;endFill=1;endSize=5;jettySize=auto;orthogonalLoop=1;strokeWidth=1;fontFamily=Verdana;fontSize=8" parent="1" source="17ea667e15c223fc-3" target="17ea667e15c223fc-5" edge="1">
          <mxGeometry relative="1" as="geometry">
            <Array as="points">
              <mxPoint x="300" y="160" />
              <mxPoint x="300" y="100" />
            </Array>
          </mxGeometry>
        </mxCell>
        <mxCell id="17ea667e15c223fc-31" style="edgeStyle=orthogonalEdgeStyle;rounded=1;html=1;labelBackgroundColor=none;startArrow=none;startFill=0;startSize=5;endArrow=classicThin;endFill=1;endSize=5;jettySize=auto;orthogonalLoop=1;strokeWidth=1;fontFamily=Verdana;fontSize=8" parent="1" source="17ea667e15c223fc-3" target="17ea667e15c223fc-4" edge="1">
          <mxGeometry relative="1" as="geometry" />
        </mxCell>
        <mxCell id="17ea667e15c223fc-3" value="XOR" style="ellipse;whiteSpace=wrap;html=1;rounded=1;shadow=0;labelBackgroundColor=none;strokeWidth=1;fontFamily=Verdana;fontSize=12;align=center;" parent="1" vertex="1">
          <mxGeometry x="190" y="140" width="40" height="40" as="geometry" />
        </mxCell>
        <mxCell id="17ea667e15c223fc-39" style="edgeStyle=orthogonalEdgeStyle;rounded=1;html=1;labelBackgroundColor=none;startArrow=none;startFill=0;startSize=5;endArrow=classicThin;endFill=1;endSize=5;jettySize=auto;orthogonalLoop=1;strokeWidth=1;fontFamily=Verdana;fontSize=8" parent="1" source="17ea667e15c223fc-4" target="17ea667e15c223fc-7" edge="1">
          <mxGeometry relative="1" as="geometry" />
        </mxCell>
        <mxCell id="17ea667e15c223fc-4" value="User is not logged in" style="shape=hexagon;perimeter=hexagonPerimeter;whiteSpace=wrap;html=1;rounded=0;shadow=0;labelBackgroundColor=none;strokeWidth=1;fontFamily=Verdana;fontSize=12;align=center;" parent="1" vertex="1">
          <mxGeometry x="10" y="230" width="120" height="80" as="geometry" />
        </mxCell>
        <mxCell id="BUsNLJVFopzORBVsBdYY-47" value="" style="edgeStyle=orthogonalEdgeStyle;rounded=0;orthogonalLoop=1;jettySize=auto;html=1;" edge="1" parent="1" source="17ea667e15c223fc-5" target="BUsNLJVFopzORBVsBdYY-30">
          <mxGeometry relative="1" as="geometry" />
        </mxCell>
        <mxCell id="17ea667e15c223fc-5" value="User is logged in" style="shape=hexagon;perimeter=hexagonPerimeter;whiteSpace=wrap;html=1;rounded=0;shadow=0;labelBackgroundColor=none;strokeWidth=1;fontFamily=Verdana;fontSize=12;align=center;" parent="1" vertex="1">
          <mxGeometry x="330" y="60" width="120" height="80" as="geometry" />
        </mxCell>
        <mxCell id="700U0XtGlQfou1sjLYNv-8" value="" style="edgeStyle=orthogonalEdgeStyle;rounded=0;orthogonalLoop=1;jettySize=auto;html=1;" parent="1" source="17ea667e15c223fc-7" target="700U0XtGlQfou1sjLYNv-2" edge="1">
          <mxGeometry relative="1" as="geometry">
            <Array as="points">
              <mxPoint x="70" y="480" />
            </Array>
          </mxGeometry>
        </mxCell>
        <mxCell id="17ea667e15c223fc-7" value="Registered user?" style="rounded=1;whiteSpace=wrap;html=1;shadow=0;labelBackgroundColor=none;strokeWidth=1;fontFamily=Verdana;fontSize=12;align=center;" parent="1" vertex="1">
          <mxGeometry x="10" y="340" width="120" height="80" as="geometry" />
        </mxCell>
        <mxCell id="700U0XtGlQfou1sjLYNv-15" value="" style="edgeStyle=orthogonalEdgeStyle;rounded=0;orthogonalLoop=1;jettySize=auto;html=1;" parent="1" source="17ea667e15c223fc-11" target="700U0XtGlQfou1sjLYNv-14" edge="1">
          <mxGeometry relative="1" as="geometry" />
        </mxCell>
        <mxCell id="17ea667e15c223fc-11" value="User is not Register" style="shape=hexagon;perimeter=hexagonPerimeter;whiteSpace=wrap;html=1;rounded=0;shadow=0;labelBackgroundColor=none;strokeWidth=1;fontFamily=Verdana;fontSize=12;align=center;" parent="1" vertex="1">
          <mxGeometry x="180" y="540" width="120" height="80" as="geometry" />
        </mxCell>
        <mxCell id="700U0XtGlQfou1sjLYNv-5" value="" style="edgeStyle=orthogonalEdgeStyle;rounded=0;orthogonalLoop=1;jettySize=auto;html=1;" parent="1" source="700U0XtGlQfou1sjLYNv-2" target="17ea667e15c223fc-11" edge="1">
          <mxGeometry relative="1" as="geometry" />
        </mxCell>
        <mxCell id="700U0XtGlQfou1sjLYNv-12" value="" style="edgeStyle=orthogonalEdgeStyle;rounded=0;orthogonalLoop=1;jettySize=auto;html=1;" parent="1" source="700U0XtGlQfou1sjLYNv-2" target="700U0XtGlQfou1sjLYNv-11" edge="1">
          <mxGeometry relative="1" as="geometry" />
        </mxCell>
        <mxCell id="700U0XtGlQfou1sjLYNv-13" value="" style="edgeStyle=orthogonalEdgeStyle;rounded=0;orthogonalLoop=1;jettySize=auto;html=1;" parent="1" source="700U0XtGlQfou1sjLYNv-2" target="17ea667e15c223fc-11" edge="1">
          <mxGeometry relative="1" as="geometry" />
        </mxCell>
        <mxCell id="700U0XtGlQfou1sjLYNv-2" value="XOR" style="ellipse;whiteSpace=wrap;html=1;" parent="1" vertex="1">
          <mxGeometry x="110" y="460" width="40" height="40" as="geometry" />
        </mxCell>
        <mxCell id="700U0XtGlQfou1sjLYNv-72" value="" style="edgeStyle=orthogonalEdgeStyle;rounded=0;orthogonalLoop=1;jettySize=auto;html=1;" parent="1" source="700U0XtGlQfou1sjLYNv-11" target="700U0XtGlQfou1sjLYNv-71" edge="1">
          <mxGeometry relative="1" as="geometry" />
        </mxCell>
        <mxCell id="700U0XtGlQfou1sjLYNv-11" value="User is resgistered" style="shape=hexagon;perimeter=hexagonPerimeter2;whiteSpace=wrap;html=1;fixedSize=1;" parent="1" vertex="1">
          <mxGeometry x="180" y="340" width="120" height="80" as="geometry" />
        </mxCell>
        <mxCell id="700U0XtGlQfou1sjLYNv-50" value="" style="edgeStyle=orthogonalEdgeStyle;rounded=0;orthogonalLoop=1;jettySize=auto;html=1;" parent="1" source="700U0XtGlQfou1sjLYNv-14" target="700U0XtGlQfou1sjLYNv-26" edge="1">
          <mxGeometry relative="1" as="geometry" />
        </mxCell>
        <mxCell id="700U0XtGlQfou1sjLYNv-14" value="XOR" style="ellipse;whiteSpace=wrap;html=1;rounded=0;shadow=0;fontFamily=Verdana;strokeWidth=1;" parent="1" vertex="1">
          <mxGeometry x="330" y="560" width="40" height="40" as="geometry" />
        </mxCell>
        <mxCell id="700U0XtGlQfou1sjLYNv-29" value="" style="edgeStyle=orthogonalEdgeStyle;rounded=0;orthogonalLoop=1;jettySize=auto;html=1;" parent="1" source="700U0XtGlQfou1sjLYNv-26" target="700U0XtGlQfou1sjLYNv-28" edge="1">
          <mxGeometry relative="1" as="geometry" />
        </mxCell>
        <mxCell id="700U0XtGlQfou1sjLYNv-26" value="Data typed in" style="shape=hexagon;perimeter=hexagonPerimeter2;whiteSpace=wrap;html=1;fixedSize=1;rounded=1;" parent="1" vertex="1">
          <mxGeometry x="290" y="650" width="120" height="80" as="geometry" />
        </mxCell>
        <mxCell id="700U0XtGlQfou1sjLYNv-33" value="" style="edgeStyle=orthogonalEdgeStyle;rounded=0;orthogonalLoop=1;jettySize=auto;html=1;" parent="1" source="700U0XtGlQfou1sjLYNv-28" target="700U0XtGlQfou1sjLYNv-32" edge="1">
          <mxGeometry relative="1" as="geometry" />
        </mxCell>
        <mxCell id="700U0XtGlQfou1sjLYNv-28" value="Proof completion, correctness &amp;amp; account already existed" style="whiteSpace=wrap;html=1;rounded=1;" parent="1" vertex="1">
          <mxGeometry x="290" y="770" width="120" height="60" as="geometry" />
        </mxCell>
        <mxCell id="700U0XtGlQfou1sjLYNv-35" value="" style="edgeStyle=orthogonalEdgeStyle;rounded=0;orthogonalLoop=1;jettySize=auto;html=1;" parent="1" source="700U0XtGlQfou1sjLYNv-32" target="700U0XtGlQfou1sjLYNv-34" edge="1">
          <mxGeometry relative="1" as="geometry" />
        </mxCell>
        <mxCell id="700U0XtGlQfou1sjLYNv-37" value="" style="edgeStyle=orthogonalEdgeStyle;rounded=0;orthogonalLoop=1;jettySize=auto;html=1;" parent="1" source="700U0XtGlQfou1sjLYNv-32" target="700U0XtGlQfou1sjLYNv-36" edge="1">
          <mxGeometry relative="1" as="geometry" />
        </mxCell>
        <mxCell id="700U0XtGlQfou1sjLYNv-32" value="XOR" style="ellipse;whiteSpace=wrap;html=1;rounded=1;" parent="1" vertex="1">
          <mxGeometry x="460" y="780" width="40" height="40" as="geometry" />
        </mxCell>
        <mxCell id="700U0XtGlQfou1sjLYNv-38" value="" style="edgeStyle=orthogonalEdgeStyle;rounded=0;orthogonalLoop=1;jettySize=auto;html=1;entryX=1;entryY=0.5;entryDx=0;entryDy=0;" parent="1" source="700U0XtGlQfou1sjLYNv-34" target="700U0XtGlQfou1sjLYNv-14" edge="1">
          <mxGeometry relative="1" as="geometry">
            <mxPoint x="480" y="670" as="targetPoint" />
            <Array as="points">
              <mxPoint x="480" y="580" />
            </Array>
          </mxGeometry>
        </mxCell>
        <mxCell id="700U0XtGlQfou1sjLYNv-34" value="Data is not correct" style="shape=hexagon;perimeter=hexagonPerimeter2;whiteSpace=wrap;html=1;fixedSize=1;rounded=1;" parent="1" vertex="1">
          <mxGeometry x="420" y="650" width="120" height="80" as="geometry" />
        </mxCell>
        <mxCell id="700U0XtGlQfou1sjLYNv-53" value="" style="edgeStyle=orthogonalEdgeStyle;rounded=0;orthogonalLoop=1;jettySize=auto;html=1;" parent="1" source="700U0XtGlQfou1sjLYNv-36" target="700U0XtGlQfou1sjLYNv-52" edge="1">
          <mxGeometry relative="1" as="geometry" />
        </mxCell>
        <mxCell id="700U0XtGlQfou1sjLYNv-36" value="Data is correct" style="shape=hexagon;perimeter=hexagonPerimeter2;whiteSpace=wrap;html=1;fixedSize=1;rounded=1;" parent="1" vertex="1">
          <mxGeometry x="420" y="860" width="120" height="80" as="geometry" />
        </mxCell>
        <mxCell id="700U0XtGlQfou1sjLYNv-56" value="" style="edgeStyle=orthogonalEdgeStyle;rounded=0;orthogonalLoop=1;jettySize=auto;html=1;" parent="1" source="700U0XtGlQfou1sjLYNv-39" target="700U0XtGlQfou1sjLYNv-55" edge="1">
          <mxGeometry relative="1" as="geometry" />
        </mxCell>
        <mxCell id="700U0XtGlQfou1sjLYNv-59" value="" style="edgeStyle=orthogonalEdgeStyle;rounded=0;orthogonalLoop=1;jettySize=auto;html=1;" parent="1" source="700U0XtGlQfou1sjLYNv-39" target="700U0XtGlQfou1sjLYNv-58" edge="1">
          <mxGeometry relative="1" as="geometry" />
        </mxCell>
        <mxCell id="700U0XtGlQfou1sjLYNv-39" value="AND" style="ellipse;whiteSpace=wrap;html=1;rounded=1;" parent="1" vertex="1">
          <mxGeometry x="720" y="880" width="40" height="40" as="geometry" />
        </mxCell>
        <mxCell id="700U0XtGlQfou1sjLYNv-43" value="Database" style="shape=cylinder;whiteSpace=wrap;html=1;boundedLbl=1;backgroundOutline=1;rounded=1;" parent="1" vertex="1">
          <mxGeometry x="1000" y="860" width="60" height="80" as="geometry" />
        </mxCell>
        <mxCell id="700U0XtGlQfou1sjLYNv-48" value="" style="edgeStyle=orthogonalEdgeStyle;rounded=0;orthogonalLoop=1;jettySize=auto;html=1;" parent="1" source="700U0XtGlQfou1sjLYNv-47" target="700U0XtGlQfou1sjLYNv-28" edge="1">
          <mxGeometry relative="1" as="geometry" />
        </mxCell>
        <mxCell id="700U0XtGlQfou1sjLYNv-47" value="Database" style="shape=cylinder3;whiteSpace=wrap;html=1;boundedLbl=1;backgroundOutline=1;size=15;" parent="1" vertex="1">
          <mxGeometry x="320" y="860" width="60" height="80" as="geometry" />
        </mxCell>
        <mxCell id="700U0XtGlQfou1sjLYNv-54" value="" style="edgeStyle=orthogonalEdgeStyle;rounded=0;orthogonalLoop=1;jettySize=auto;html=1;" parent="1" source="700U0XtGlQfou1sjLYNv-52" target="700U0XtGlQfou1sjLYNv-39" edge="1">
          <mxGeometry relative="1" as="geometry" />
        </mxCell>
        <mxCell id="700U0XtGlQfou1sjLYNv-52" value="Random code and Hash password" style="shape=hexagon;perimeter=hexagonPerimeter2;whiteSpace=wrap;html=1;fixedSize=1;rounded=1;" parent="1" vertex="1">
          <mxGeometry x="570" y="860" width="120" height="80" as="geometry" />
        </mxCell>
        <mxCell id="700U0XtGlQfou1sjLYNv-57" value="" style="edgeStyle=orthogonalEdgeStyle;rounded=0;orthogonalLoop=1;jettySize=auto;html=1;" parent="1" source="700U0XtGlQfou1sjLYNv-55" target="700U0XtGlQfou1sjLYNv-43" edge="1">
          <mxGeometry relative="1" as="geometry" />
        </mxCell>
        <mxCell id="700U0XtGlQfou1sjLYNv-55" value="Save account&#39;s data&amp;nbsp; and code(verify) into Database " style="shape=hexagon;perimeter=hexagonPerimeter2;whiteSpace=wrap;html=1;fixedSize=1;rounded=1;" parent="1" vertex="1">
          <mxGeometry x="830" y="860" width="120" height="80" as="geometry" />
        </mxCell>
        <mxCell id="700U0XtGlQfou1sjLYNv-61" value="" style="edgeStyle=orthogonalEdgeStyle;rounded=0;orthogonalLoop=1;jettySize=auto;html=1;" parent="1" source="700U0XtGlQfou1sjLYNv-58" target="700U0XtGlQfou1sjLYNv-60" edge="1">
          <mxGeometry relative="1" as="geometry" />
        </mxCell>
        <mxCell id="700U0XtGlQfou1sjLYNv-58" value="Send email message with code to verify" style="shape=hexagon;perimeter=hexagonPerimeter2;whiteSpace=wrap;html=1;fixedSize=1;rounded=1;" parent="1" vertex="1">
          <mxGeometry x="680" y="960" width="120" height="80" as="geometry" />
        </mxCell>
        <mxCell id="700U0XtGlQfou1sjLYNv-63" value="" style="edgeStyle=orthogonalEdgeStyle;rounded=0;orthogonalLoop=1;jettySize=auto;html=1;" parent="1" source="700U0XtGlQfou1sjLYNv-60" target="700U0XtGlQfou1sjLYNv-62" edge="1">
          <mxGeometry relative="1" as="geometry" />
        </mxCell>
        <mxCell id="700U0XtGlQfou1sjLYNv-60" value="User activate the account with code (verify)" style="shape=hexagon;perimeter=hexagonPerimeter2;whiteSpace=wrap;html=1;fixedSize=1;rounded=1;" parent="1" vertex="1">
          <mxGeometry x="680" y="1080" width="120" height="80" as="geometry" />
        </mxCell>
        <mxCell id="BUsNLJVFopzORBVsBdYY-25" value="" style="edgeStyle=orthogonalEdgeStyle;rounded=0;orthogonalLoop=1;jettySize=auto;html=1;" edge="1" parent="1" source="700U0XtGlQfou1sjLYNv-62" target="BUsNLJVFopzORBVsBdYY-24">
          <mxGeometry relative="1" as="geometry" />
        </mxCell>
        <mxCell id="700U0XtGlQfou1sjLYNv-62" value="Account activated" style="shape=hexagon;perimeter=hexagonPerimeter2;whiteSpace=wrap;html=1;fixedSize=1;rounded=1;" parent="1" vertex="1">
          <mxGeometry x="850" y="1080" width="120" height="80" as="geometry" />
        </mxCell>
        <mxCell id="700U0XtGlQfou1sjLYNv-74" value="" style="edgeStyle=orthogonalEdgeStyle;rounded=0;orthogonalLoop=1;jettySize=auto;html=1;entryX=0;entryY=0.5;entryDx=0;entryDy=0;" parent="1" source="700U0XtGlQfou1sjLYNv-71" target="700U0XtGlQfou1sjLYNv-75" edge="1">
          <mxGeometry relative="1" as="geometry">
            <mxPoint x="540" y="380" as="targetPoint" />
          </mxGeometry>
        </mxCell>
        <mxCell id="700U0XtGlQfou1sjLYNv-71" value="User forgot password" style="shape=hexagon;perimeter=hexagonPerimeter2;whiteSpace=wrap;html=1;fixedSize=1;rounded=1;" parent="1" vertex="1">
          <mxGeometry x="350" y="340" width="120" height="80" as="geometry" />
        </mxCell>
        <mxCell id="700U0XtGlQfou1sjLYNv-89" value="" style="edgeStyle=orthogonalEdgeStyle;rounded=0;orthogonalLoop=1;jettySize=auto;html=1;" parent="1" source="700U0XtGlQfou1sjLYNv-75" target="700U0XtGlQfou1sjLYNv-78" edge="1">
          <mxGeometry relative="1" as="geometry" />
        </mxCell>
        <mxCell id="700U0XtGlQfou1sjLYNv-75" value="Random code and Hash password" style="shape=hexagon;perimeter=hexagonPerimeter2;whiteSpace=wrap;html=1;fixedSize=1;rounded=1;" parent="1" vertex="1">
          <mxGeometry x="510" y="340" width="120" height="80" as="geometry" />
        </mxCell>
        <mxCell id="700U0XtGlQfou1sjLYNv-76" value="" style="edgeStyle=orthogonalEdgeStyle;rounded=0;orthogonalLoop=1;jettySize=auto;html=1;" parent="1" source="700U0XtGlQfou1sjLYNv-78" target="700U0XtGlQfou1sjLYNv-82" edge="1">
          <mxGeometry relative="1" as="geometry" />
        </mxCell>
        <mxCell id="700U0XtGlQfou1sjLYNv-77" value="" style="edgeStyle=orthogonalEdgeStyle;rounded=0;orthogonalLoop=1;jettySize=auto;html=1;" parent="1" source="700U0XtGlQfou1sjLYNv-78" target="700U0XtGlQfou1sjLYNv-84" edge="1">
          <mxGeometry relative="1" as="geometry" />
        </mxCell>
        <mxCell id="700U0XtGlQfou1sjLYNv-78" value="AND" style="ellipse;whiteSpace=wrap;html=1;rounded=1;" parent="1" vertex="1">
          <mxGeometry x="670" y="360" width="40" height="40" as="geometry" />
        </mxCell>
        <mxCell id="700U0XtGlQfou1sjLYNv-101" value="" style="edgeStyle=orthogonalEdgeStyle;rounded=0;orthogonalLoop=1;jettySize=auto;html=1;" parent="1" source="700U0XtGlQfou1sjLYNv-79" target="700U0XtGlQfou1sjLYNv-87" edge="1">
          <mxGeometry relative="1" as="geometry" />
        </mxCell>
        <mxCell id="700U0XtGlQfou1sjLYNv-79" value="Database" style="shape=cylinder;whiteSpace=wrap;html=1;boundedLbl=1;backgroundOutline=1;rounded=1;" parent="1" vertex="1">
          <mxGeometry x="960" y="340" width="60" height="80" as="geometry" />
        </mxCell>
        <mxCell id="700U0XtGlQfou1sjLYNv-81" value="" style="edgeStyle=orthogonalEdgeStyle;rounded=0;orthogonalLoop=1;jettySize=auto;html=1;" parent="1" source="700U0XtGlQfou1sjLYNv-82" target="700U0XtGlQfou1sjLYNv-79" edge="1">
          <mxGeometry relative="1" as="geometry" />
        </mxCell>
        <mxCell id="700U0XtGlQfou1sjLYNv-82" value="Update code to verify into database" style="shape=hexagon;perimeter=hexagonPerimeter2;whiteSpace=wrap;html=1;fixedSize=1;rounded=1;" parent="1" vertex="1">
          <mxGeometry x="780" y="340" width="120" height="80" as="geometry" />
        </mxCell>
        <mxCell id="700U0XtGlQfou1sjLYNv-96" value="" style="edgeStyle=orthogonalEdgeStyle;rounded=0;orthogonalLoop=1;jettySize=auto;html=1;" parent="1" source="700U0XtGlQfou1sjLYNv-84" target="700U0XtGlQfou1sjLYNv-94" edge="1">
          <mxGeometry relative="1" as="geometry" />
        </mxCell>
        <mxCell id="700U0XtGlQfou1sjLYNv-84" value="Send email message with code to verify" style="shape=hexagon;perimeter=hexagonPerimeter2;whiteSpace=wrap;html=1;fixedSize=1;rounded=1;" parent="1" vertex="1">
          <mxGeometry x="630" y="450" width="120" height="80" as="geometry" />
        </mxCell>
        <mxCell id="700U0XtGlQfou1sjLYNv-85" value="" style="edgeStyle=orthogonalEdgeStyle;rounded=0;orthogonalLoop=1;jettySize=auto;html=1;" parent="1" source="700U0XtGlQfou1sjLYNv-86" target="700U0XtGlQfou1sjLYNv-87" edge="1">
          <mxGeometry relative="1" as="geometry" />
        </mxCell>
        <mxCell id="700U0XtGlQfou1sjLYNv-86" value="User enter code (verify)" style="shape=hexagon;perimeter=hexagonPerimeter2;whiteSpace=wrap;html=1;fixedSize=1;rounded=1;" parent="1" vertex="1">
          <mxGeometry x="780" y="550" width="120" height="80" as="geometry" />
        </mxCell>
        <mxCell id="700U0XtGlQfou1sjLYNv-109" value="" style="edgeStyle=orthogonalEdgeStyle;rounded=0;orthogonalLoop=1;jettySize=auto;html=1;" parent="1" source="700U0XtGlQfou1sjLYNv-87" target="700U0XtGlQfou1sjLYNv-108" edge="1">
          <mxGeometry relative="1" as="geometry" />
        </mxCell>
        <mxCell id="700U0XtGlQfou1sjLYNv-87" value="System checking" style="shape=hexagon;perimeter=hexagonPerimeter2;whiteSpace=wrap;html=1;fixedSize=1;rounded=1;size=0;" parent="1" vertex="1">
          <mxGeometry x="930" y="550" width="120" height="80" as="geometry" />
        </mxCell>
        <mxCell id="700U0XtGlQfou1sjLYNv-97" value="" style="edgeStyle=orthogonalEdgeStyle;rounded=0;orthogonalLoop=1;jettySize=auto;html=1;" parent="1" source="700U0XtGlQfou1sjLYNv-94" target="700U0XtGlQfou1sjLYNv-86" edge="1">
          <mxGeometry relative="1" as="geometry" />
        </mxCell>
        <mxCell id="700U0XtGlQfou1sjLYNv-94" value="XOR" style="ellipse;whiteSpace=wrap;html=1;rounded=1;" parent="1" vertex="1">
          <mxGeometry x="670" y="570" width="40" height="40" as="geometry" />
        </mxCell>
        <mxCell id="700U0XtGlQfou1sjLYNv-100" value="" style="edgeStyle=orthogonalEdgeStyle;rounded=0;orthogonalLoop=1;jettySize=auto;html=1;" parent="1" source="700U0XtGlQfou1sjLYNv-98" target="700U0XtGlQfou1sjLYNv-94" edge="1">
          <mxGeometry relative="1" as="geometry" />
        </mxCell>
        <mxCell id="700U0XtGlQfou1sjLYNv-98" value="Incorrect code" style="shape=hexagon;perimeter=hexagonPerimeter2;whiteSpace=wrap;html=1;fixedSize=1;rounded=1;" parent="1" vertex="1">
          <mxGeometry x="770" y="660" width="120" height="80" as="geometry" />
        </mxCell>
        <mxCell id="700U0XtGlQfou1sjLYNv-107" value="" style="edgeStyle=orthogonalEdgeStyle;rounded=0;orthogonalLoop=1;jettySize=auto;html=1;" parent="1" source="700U0XtGlQfou1sjLYNv-105" target="700U0XtGlQfou1sjLYNv-87" edge="1">
          <mxGeometry relative="1" as="geometry" />
        </mxCell>
        <mxCell id="700U0XtGlQfou1sjLYNv-105" value="System" style="shape=process;whiteSpace=wrap;html=1;backgroundOutline=1;" parent="1" vertex="1">
          <mxGeometry x="1100" y="560" width="120" height="60" as="geometry" />
        </mxCell>
        <mxCell id="700U0XtGlQfou1sjLYNv-110" value="" style="edgeStyle=orthogonalEdgeStyle;rounded=0;orthogonalLoop=1;jettySize=auto;html=1;" parent="1" source="700U0XtGlQfou1sjLYNv-108" target="700U0XtGlQfou1sjLYNv-98" edge="1">
          <mxGeometry relative="1" as="geometry" />
        </mxCell>
        <mxCell id="700U0XtGlQfou1sjLYNv-112" value="" style="edgeStyle=orthogonalEdgeStyle;rounded=0;orthogonalLoop=1;jettySize=auto;html=1;" parent="1" source="700U0XtGlQfou1sjLYNv-108" target="700U0XtGlQfou1sjLYNv-111" edge="1">
          <mxGeometry relative="1" as="geometry" />
        </mxCell>
        <mxCell id="700U0XtGlQfou1sjLYNv-108" value="XOR" style="ellipse;whiteSpace=wrap;html=1;rounded=1;" parent="1" vertex="1">
          <mxGeometry x="970" y="680" width="40" height="40" as="geometry" />
        </mxCell>
        <mxCell id="700U0XtGlQfou1sjLYNv-114" value="" style="edgeStyle=orthogonalEdgeStyle;rounded=0;orthogonalLoop=1;jettySize=auto;html=1;" parent="1" source="700U0XtGlQfou1sjLYNv-111" target="700U0XtGlQfou1sjLYNv-113" edge="1">
          <mxGeometry relative="1" as="geometry" />
        </mxCell>
        <mxCell id="700U0XtGlQfou1sjLYNv-111" value="Correct code" style="shape=hexagon;perimeter=hexagonPerimeter2;whiteSpace=wrap;html=1;fixedSize=1;rounded=1;" parent="1" vertex="1">
          <mxGeometry x="1100" y="660" width="120" height="80" as="geometry" />
        </mxCell>
        <mxCell id="700U0XtGlQfou1sjLYNv-119" value="" style="edgeStyle=orthogonalEdgeStyle;rounded=0;orthogonalLoop=1;jettySize=auto;html=1;" parent="1" source="700U0XtGlQfou1sjLYNv-113" target="700U0XtGlQfou1sjLYNv-117" edge="1">
          <mxGeometry relative="1" as="geometry" />
        </mxCell>
        <mxCell id="700U0XtGlQfou1sjLYNv-113" value="User enter new password" style="shape=hexagon;perimeter=hexagonPerimeter2;whiteSpace=wrap;html=1;fixedSize=1;rounded=1;" parent="1" vertex="1">
          <mxGeometry x="1100" y="760" width="120" height="80" as="geometry" />
        </mxCell>
        <mxCell id="700U0XtGlQfou1sjLYNv-118" value="" style="edgeStyle=orthogonalEdgeStyle;rounded=0;orthogonalLoop=1;jettySize=auto;html=1;" parent="1" source="700U0XtGlQfou1sjLYNv-117" target="700U0XtGlQfou1sjLYNv-43" edge="1">
          <mxGeometry relative="1" as="geometry" />
        </mxCell>
        <mxCell id="700U0XtGlQfou1sjLYNv-117" value="Update new password into database" style="shape=hexagon;perimeter=hexagonPerimeter2;whiteSpace=wrap;html=1;fixedSize=1;rounded=1;" parent="1" vertex="1">
          <mxGeometry x="1100" y="860" width="120" height="80" as="geometry" />
        </mxCell>
        <mxCell id="BUsNLJVFopzORBVsBdYY-2" value="" style="edgeStyle=orthogonalEdgeStyle;rounded=0;orthogonalLoop=1;jettySize=auto;html=1;" edge="1" parent="1" source="BUsNLJVFopzORBVsBdYY-1" target="700U0XtGlQfou1sjLYNv-28">
          <mxGeometry relative="1" as="geometry" />
        </mxCell>
        <mxCell id="BUsNLJVFopzORBVsBdYY-1" value="System" style="shape=process;whiteSpace=wrap;html=1;backgroundOutline=1;" vertex="1" parent="1">
          <mxGeometry x="150" y="770" width="120" height="60" as="geometry" />
        </mxCell>
        <mxCell id="BUsNLJVFopzORBVsBdYY-27" value="" style="edgeStyle=orthogonalEdgeStyle;rounded=0;orthogonalLoop=1;jettySize=auto;html=1;" edge="1" parent="1" source="BUsNLJVFopzORBVsBdYY-24" target="BUsNLJVFopzORBVsBdYY-26">
          <mxGeometry relative="1" as="geometry" />
        </mxCell>
        <mxCell id="BUsNLJVFopzORBVsBdYY-24" value="Complete information" style="shape=hexagon;perimeter=hexagonPerimeter2;whiteSpace=wrap;html=1;fixedSize=1;rounded=1;" vertex="1" parent="1">
          <mxGeometry x="1000" y="1080" width="120" height="80" as="geometry" />
        </mxCell>
        <mxCell id="BUsNLJVFopzORBVsBdYY-28" value="" style="edgeStyle=orthogonalEdgeStyle;rounded=0;orthogonalLoop=1;jettySize=auto;html=1;" edge="1" parent="1" source="BUsNLJVFopzORBVsBdYY-26" target="700U0XtGlQfou1sjLYNv-43">
          <mxGeometry relative="1" as="geometry" />
        </mxCell>
        <mxCell id="BUsNLJVFopzORBVsBdYY-26" value="Save complete data into database" style="shape=hexagon;perimeter=hexagonPerimeter2;whiteSpace=wrap;html=1;fixedSize=1;rounded=1;" vertex="1" parent="1">
          <mxGeometry x="1000" y="980" width="120" height="80" as="geometry" />
        </mxCell>
        <mxCell id="BUsNLJVFopzORBVsBdYY-29" value="" style="edgeStyle=orthogonalEdgeStyle;rounded=0;orthogonalLoop=1;jettySize=auto;html=1;" edge="1" parent="1" source="BUsNLJVFopzORBVsBdYY-30" target="BUsNLJVFopzORBVsBdYY-32">
          <mxGeometry relative="1" as="geometry" />
        </mxCell>
        <mxCell id="BUsNLJVFopzORBVsBdYY-30" value="XOR" style="ellipse;whiteSpace=wrap;html=1;rounded=0;shadow=0;fontFamily=Verdana;strokeWidth=1;" vertex="1" parent="1">
          <mxGeometry x="500" y="80" width="40" height="40" as="geometry" />
        </mxCell>
        <mxCell id="BUsNLJVFopzORBVsBdYY-31" value="" style="edgeStyle=orthogonalEdgeStyle;rounded=0;orthogonalLoop=1;jettySize=auto;html=1;" edge="1" parent="1" source="BUsNLJVFopzORBVsBdYY-32" target="BUsNLJVFopzORBVsBdYY-34">
          <mxGeometry relative="1" as="geometry" />
        </mxCell>
        <mxCell id="BUsNLJVFopzORBVsBdYY-32" value="Data typed in" style="shape=hexagon;perimeter=hexagonPerimeter2;whiteSpace=wrap;html=1;fixedSize=1;rounded=1;" vertex="1" parent="1">
          <mxGeometry x="460" y="140" width="120" height="80" as="geometry" />
        </mxCell>
        <mxCell id="BUsNLJVFopzORBVsBdYY-33" value="" style="edgeStyle=orthogonalEdgeStyle;rounded=0;orthogonalLoop=1;jettySize=auto;html=1;" edge="1" parent="1" source="BUsNLJVFopzORBVsBdYY-34" target="BUsNLJVFopzORBVsBdYY-37">
          <mxGeometry relative="1" as="geometry" />
        </mxCell>
        <mxCell id="BUsNLJVFopzORBVsBdYY-34" value="Proof completion, correctness &amp;amp; account is not existed" style="whiteSpace=wrap;html=1;rounded=1;" vertex="1" parent="1">
          <mxGeometry x="460" y="250" width="120" height="60" as="geometry" />
        </mxCell>
        <mxCell id="BUsNLJVFopzORBVsBdYY-35" value="" style="edgeStyle=orthogonalEdgeStyle;rounded=0;orthogonalLoop=1;jettySize=auto;html=1;" edge="1" parent="1" source="BUsNLJVFopzORBVsBdYY-37" target="BUsNLJVFopzORBVsBdYY-39">
          <mxGeometry relative="1" as="geometry" />
        </mxCell>
        <mxCell id="BUsNLJVFopzORBVsBdYY-36" value="" style="edgeStyle=orthogonalEdgeStyle;rounded=0;orthogonalLoop=1;jettySize=auto;html=1;" edge="1" parent="1" source="BUsNLJVFopzORBVsBdYY-37" target="BUsNLJVFopzORBVsBdYY-41">
          <mxGeometry relative="1" as="geometry" />
        </mxCell>
        <mxCell id="BUsNLJVFopzORBVsBdYY-37" value="XOR" style="ellipse;whiteSpace=wrap;html=1;rounded=1;" vertex="1" parent="1">
          <mxGeometry x="640" y="200" width="40" height="40" as="geometry" />
        </mxCell>
        <mxCell id="BUsNLJVFopzORBVsBdYY-39" value="Data is not correct" style="shape=hexagon;perimeter=hexagonPerimeter2;whiteSpace=wrap;html=1;fixedSize=1;rounded=1;" vertex="1" parent="1">
          <mxGeometry x="600" y="90" width="120" height="80" as="geometry" />
        </mxCell>
        <mxCell id="BUsNLJVFopzORBVsBdYY-40" value="" style="edgeStyle=orthogonalEdgeStyle;rounded=0;orthogonalLoop=1;jettySize=auto;html=1;" edge="1" parent="1" source="BUsNLJVFopzORBVsBdYY-41" target="BUsNLJVFopzORBVsBdYY-46">
          <mxGeometry relative="1" as="geometry" />
        </mxCell>
        <mxCell id="BUsNLJVFopzORBVsBdYY-41" value="Data is correct" style="shape=hexagon;perimeter=hexagonPerimeter2;whiteSpace=wrap;html=1;fixedSize=1;rounded=1;" vertex="1" parent="1">
          <mxGeometry x="740" y="180" width="120" height="80" as="geometry" />
        </mxCell>
        <mxCell id="BUsNLJVFopzORBVsBdYY-42" value="" style="edgeStyle=orthogonalEdgeStyle;rounded=0;orthogonalLoop=1;jettySize=auto;html=1;" edge="1" parent="1" source="BUsNLJVFopzORBVsBdYY-43" target="BUsNLJVFopzORBVsBdYY-34">
          <mxGeometry relative="1" as="geometry">
            <Array as="points">
              <mxPoint x="440" y="200" />
              <mxPoint x="440" y="270" />
            </Array>
          </mxGeometry>
        </mxCell>
        <mxCell id="BUsNLJVFopzORBVsBdYY-43" value="Database" style="shape=cylinder3;whiteSpace=wrap;html=1;boundedLbl=1;backgroundOutline=1;size=15;" vertex="1" parent="1">
          <mxGeometry x="310" y="160" width="60" height="80" as="geometry" />
        </mxCell>
        <mxCell id="BUsNLJVFopzORBVsBdYY-44" value="" style="edgeStyle=orthogonalEdgeStyle;rounded=0;orthogonalLoop=1;jettySize=auto;html=1;" edge="1" parent="1" source="BUsNLJVFopzORBVsBdYY-45" target="BUsNLJVFopzORBVsBdYY-34">
          <mxGeometry relative="1" as="geometry" />
        </mxCell>
        <mxCell id="BUsNLJVFopzORBVsBdYY-45" value="System" style="shape=process;whiteSpace=wrap;html=1;backgroundOutline=1;" vertex="1" parent="1">
          <mxGeometry x="280" y="250" width="120" height="60" as="geometry" />
        </mxCell>
        <mxCell id="BUsNLJVFopzORBVsBdYY-46" value="Give the jwt token is Bearer token&lt;br&gt;Exp in 24h" style="shape=hexagon;perimeter=hexagonPerimeter2;whiteSpace=wrap;html=1;fixedSize=1;rounded=1;" vertex="1" parent="1">
          <mxGeometry x="900" y="180" width="120" height="80" as="geometry" />
        </mxCell>
        <mxCell id="BUsNLJVFopzORBVsBdYY-48" value="" style="edgeStyle=orthogonalEdgeStyle;rounded=0;orthogonalLoop=1;jettySize=auto;html=1;exitX=0.5;exitY=0;exitDx=0;exitDy=0;entryX=0.5;entryY=0;entryDx=0;entryDy=0;" edge="1" parent="1" source="BUsNLJVFopzORBVsBdYY-39" target="BUsNLJVFopzORBVsBdYY-30">
          <mxGeometry relative="1" as="geometry">
            <mxPoint x="640" y="50" as="sourcePoint" />
            <mxPoint x="720" y="10" as="targetPoint" />
            <Array as="points">
              <mxPoint x="660" y="40" />
              <mxPoint x="520" y="40" />
            </Array>
          </mxGeometry>
        </mxCell>
      </root>
    </mxGraphModel>
  </diagram>
</mxfile>
